<?xml version="1.0" encoding="UTF-8" standalone="no"?>
<!-- Created with Inkscape (http://www.inkscape.org/) -->

<svg
   xmlns:dc="http://purl.org/dc/elements/1.1/"
   xmlns:cc="http://creativecommons.org/ns#"
   xmlns:rdf="http://www.w3.org/1999/02/22-rdf-syntax-ns#"
   xmlns:svg="http://www.w3.org/2000/svg"
   xmlns="http://www.w3.org/2000/svg"
   xmlns:xlink="http://www.w3.org/1999/xlink"
   version="1.1"
   width="1600"
   height="1288"
   id="svg3039">
  <metadata
     id="metadata3045">
    <rdf:RDF>
      <cc:Work
         rdf:about="">
        <dc:format>image/svg+xml</dc:format>
        <dc:type
           rdf:resource="http://purl.org/dc/dcmitype/StillImage" />
        <dc:title></dc:title>
      </cc:Work>
    </rdf:RDF>
  </metadata>
  <defs
     id="defs3043">
    <linearGradient
       id="linearGradient3121">
      <stop
         id="stop3123"
         style="stop-color:#354b85;stop-opacity:0"
         offset="0" />
      <stop
         id="stop3125"
         style="stop-color:#354b85;stop-opacity:1"
         offset="1" />
    </linearGradient>
    <linearGradient
       x1="820.23529"
       y1="612.70587"
       x2="23.058823"
       y2="32.941177"
       id="linearGradient3127"
       xlink:href="#linearGradient3121"
       gradientUnits="userSpaceOnUse" />
    <radialGradient
       cx="-254.11768"
       cy="894.35297"
       r="800"
       fx="-254.11768"
       fy="894.35297"
       id="radialGradient3937"
       xlink:href="#linearGradient3121"
       gradientUnits="userSpaceOnUse"
       gradientTransform="matrix(1.2929411,1.4341002e-8,-1.4341003e-8,1.2929412,1128.5592,-512.34578)" />
    <filter
       color-interpolation-filters="sRGB"
       id="filter3799">
      <feGaussianBlur
         id="feGaussianBlur3801"
         stdDeviation="22.536193" />
    </filter>
    <filter
       color-interpolation-filters="sRGB"
       id="filter4015">
      <feGaussianBlur
         id="feGaussianBlur4017"
         stdDeviation="9.5526563" />
    </filter>
  </defs>
  <rect
     width="1600"
     height="1288"
     x="0"
     y="0"
     id="rect4001"
     style="fill:#d3dced;fill-opacity:1;stroke:none" />
  <rect
     width="2098.9338"
     height="671.39807"
     x="-293.32925"
     y="-295.978"
     id="rect3803"
     style="fill:#000080;fill-opacity:0.50196078;stroke:none" />
  <path
     d="M -55.8125,359.25 C -62.927083,643.69792 -70.041667,928.14583 -77.15625,1212.5938 503.83333,961.80208 1084.8229,711.01042 1665.8125,460.21875 c -9,-134.98958 -18,-269.97917 -27,-404.96875 -564.875,101.33333 -1129.75,202.66667 -1694.625,304 z"
     id="path3955"
     style="fill:#ffffff;fill-opacity:1;stroke:#000000;stroke-width:1px;stroke-linecap:butt;stroke-linejoin:miter;stroke-opacity:1" />
  <path
     d="M 1666.4375,30.8125 C 1087.4602,127.43251 508.84768,233.62062 -70.129631,342.37037 L -92.829856,1247.2946 C 502.64581,993.05158 1098.5203,736.81461 1695.5138,474.98206 z m -57.5625,94.125 20.8125,256.625 L 10.34375,974.34375 -15.125,487.03125 C 526.20816,361.8345 1067.5418,238.092 1608.875,124.9375 z"
     id="path3793"
     style="fill:#000000;fill-opacity:1;stroke:none;filter:url(#filter3799)" />
  <path
     d="M 1659.4375,29.8125 C 1080.4602,126.43251 501.84768,232.62062 -77.129631,341.37037 L -99.829856,1246.2946 C 495.64581,992.05158 1091.5203,735.81461 1688.5138,473.98206 z m -57.5625,94.125 20.8125,256.625 L 3.34375,973.34375 -22.125,486.03125 C 519.20816,360.8345 1060.5418,237.092 1601.875,123.9375 z"
     id="path2998"
     style="fill:#cdd9e9;fill-opacity:1;stroke:#000000;stroke-width:1px;stroke-linecap:butt;stroke-linejoin:miter;stroke-opacity:1" />
  <path
     d="m 833.8125,627.0625 227.1269,659.4589 23.4004,-15.9022 63.0352,-262.6817 247.4473,233.9121 61.8027,-119.6621 -235.125,-219.25 163.5312,-98.46875 3,-18.9375 z"
     id="path4009"
     style="font-size:medium;font-style:normal;font-variant:normal;font-weight:normal;font-stretch:normal;text-indent:0;text-align:start;text-decoration:none;line-height:normal;letter-spacing:normal;word-spacing:normal;text-transform:none;direction:ltr;block-progression:tb;writing-mode:lr-tb;text-anchor:start;baseline-shift:baseline;color:#000000;fill:#000000;fill-opacity:1;fill-rule:nonzero;stroke:none;stroke-width:18;marker:none;visibility:visible;display:inline;overflow:visible;filter:url(#filter4015);enable-background:accumulate;font-family:Sans;-inkscape-font-specification:Sans" />
  <path
     d="m 1073.0449,1259.9531 66.4204,-257.3646 6.1041,-8.64754 246.2874,229.37584 53.5475,-99.2856 -236.1408,-220.15737 5.2281,-7.20627 162.2978,-97.75128 1.0994,-6.91165 L 848.07148,640.49478 1067.259,1263.8954 z"
     id="path3003"
     style="fill:#ffffff;fill-opacity:1;stroke:none" />
  <rect
     width="1600"
     height="1288"
     x="0"
     y="0"
     id="rect3131"
     style="fill:url(#radialGradient3937);fill-opacity:1" />
  <path
     d="m 1540.9174,218.73354 14.604,74.25346 -45.4589,-65.64325 -22.3125,5.5625 14.0625,73.28125 -47.3347,-65.07343 -50.8463,13.28769 12.2435,78.25449 -48.0891,-68.76351 -26.7081,6.83274 c 4.1302,26.74338 9.1752,53.35553 13.1722,80.11827 -17.6907,-23.01408 -51.7922,-70.12291 -51.7922,-70.12291 0,0 -40.4017,10.27603 -59.568,15.90416 3.1428,28.89616 7.1388,57.78971 10.2664,86.6875 -17.7944,-25.01587 -34.8518,-50.54747 -52.6526,-75.55877 l -31.0661,8.34002 c 0,0 7.5639,57.75555 10.875,86.53125 -2.6383,2.92782 -4.4386,-4.19576 -6.3323,-5.39101 -16.9413,-23.05716 -33.4807,-46.54974 -50.4221,-69.6069 -10.9491,2.96703 -22.7883,5.42546 -33.3081,9.52916 30.9087,40.88742 62.355,83.58101 93.5695,124.18348 l 32.3881,-10.75178 -11.2388,-87.9317 c 17.4399,24.24082 52.5403,74.30623 52.5403,74.30623 l 30.4641,-10.1096 c 0,0 -10.3894,-94.32154 -15.1007,-139.48569 28.7085,37.44779 58.3879,78.27866 87.0963,115.72656 l 27.2211,-9.39472 -13.6274,-79.73028 48.739,68.6286 25.726,-8.71682 -17.7463,-122.16178 78.8126,102.375 23.3924,-7.6848 -14.5174,-72.34645 44.3266,62.29038 21.6821,-7.29906 -21.2146,-115.91582 z m -499.9958,70.48401 28.7972,213.65745 c 0,0 18.0313,-5.72341 26.875,-8.84375 -9.5001,-70.14583 -28.0981,-211.30832 -28.0981,-211.30832 z M 994.25,301.4375 c -9.54986,1.00269 -28.25,5.71875 -28.25,5.71875 l 25.08462,222.30877 29.44778,-10.05084 -25.68865,-218.00793 c -0.19825,3.3e-4 -0.39666,-0.004 -0.59375,0.0313 z m -128.4103,95.02257 14.31192,40.22221 42.00868,-12.14235 -14.19618,-39.82957 z M 522.6875,452 c 0.60051,11.6559 7.80313,21.81508 9,33.375 -7.38435,3.12574 -16.09154,4.03951 -22.96875,7.5 2.78531,12.08733 6.26138,24.15101 10.28125,35.78125 7.88587,-1.94607 15.76832,-3.90611 23.65625,-5.84375 12.22696,34.68829 32.34551,98.40918 32.34551,98.40918 6.23153,17.40964 19.24088,28.60727 32.69905,29.32288 27.11157,1.4416 49.18733,-7.93494 70.525,-24.52016 L 662.6923,592.53438 c -9.14019,5.02224 -20.70897,14.88864 -31.7548,9.68437 -5.74253,-3.82506 -6.16413,-12.28428 -9.04652,-18.13226 -8.56261,-25.24505 -24.77735,-76.9126 -24.77735,-76.9126 l 35.03142,-10.19048 -11.58255,-34.13966 -34.6875,8.125 -18.95258,-57.96937 C 552.7245,425.37438 536.88542,439.625 522.6875,452 z m 247.03125,-31.5 c -25.7288,-0.4 -50.35001,14.90941 -61.78125,37.875 -1.38478,3.09295 -4.67738,1.06515 -4.26118,-2.03355 -2.01268,-4.5747 -2.7853,-11.16333 -5.77007,-14.5602 -14.93293,3.26892 -45.1899,11.84255 -45.1899,11.84255 l 75.59688,229.82283 48.79145,-17.23521 -27.009,-82.14132 c 3.80029,1.67709 9.42912,3.90481 13.02932,5.3049 29.68861,11.54569 63.5911,-0.0742 80.99322,-25.12211 16.37978,-21.59267 16.38602,-51.08441 8.25678,-75.81539 -7.95471,-26.8588 -25.67835,-52.37543 -52.21875,-62.96875 -9.55961,-4.31092 -19.97249,-5.31469 -30.4375,-4.96875 z m -382.5625,67.0625 c 0,0 7.12241,22.89629 9.78125,34.59375 l -26.74807,7.08566 11.32387,38.70696 27.12636,-7.93587 c 0,0 20.22426,73.83382 33.23534,109.14325 5.4717,14.32697 18.99903,26.46447 35.125,25.65625 30.88779,1.38708 56.46249,-13.56034 74.20157,-26.47252 l -16.66568,-35.09253 c -7.63515,4.13688 -18.48025,13.00904 -29.06714,12.2838 -10.23137,-1.46802 -11.50008,-13.84115 -14.62013,-21.67026 -8.27058,-26.28226 -16.44526,-52.73316 -23.78612,-79.32974 l 37.487,-11.33476 -11.62051,-37.10305 -37.58524,10.51303 -18.60731,-61.165 z m 373.9375,-29.28125 c 18.16442,-0.18722 33.76879,13.28811 39.90625,29.78125 7.3488,17.28754 14.46045,38.65765 4.09375,56.21875 -12.21937,20.73298 -44.52626,21.68321 -60.21875,4.5625 -14.14154,-15.58986 -22.48287,-37.15322 -21.1875,-58.34375 1.93611,-18.0789 19.39819,-32.63595 37.40625,-32.21875 z m 144.08835,49.3089 14.66898,41.27365 42.17151,-14.28904 -14.93093,-40.0794 z m -810.950355,18.18166 71.075365,274.22805 67.84914,-23.46861 c -9.80851,-39.76076 -21.31729,-79.15203 -29.93993,-119.17483 -3.88849,-17.71276 3.43036,-37.34593 19.09618,-46.82517 15.30306,-10.01414 36.14052,-16.95051 53.65625,-8.4375 12.42398,6.43219 14.61825,22.30164 19.0896,34.34862 l 31.24293,109.43518 62.56745,-20.63935 c 0,0 -23.90835,-85.95457 -37.4834,-127.39973 -4.94211,-15.89072 -14.13784,-31.42146 -29.35408,-38.86972 -25.79655,-12.6424 -56.27398,-7.77701 -82.28125,1.9375 -23.53921,7.76277 -38.97528,25.37938 -52.72842,40.82172 l -25.19905,-92.81709 z"
     id="path2990"
     style="fill:#000000" />
  <path
     d="m 1073.0449,1259.9531 66.4204,-257.3646 6.1041,-8.64754 246.2874,229.37584 53.5475,-99.2856 -236.1408,-220.15737 5.2281,-7.20627 162.2978,-97.75128 1.0994,-6.91165 L 848.07148,640.49478 1067.259,1263.8954 z"
     id="path4038"
     style="fill:none;stroke:#000000;stroke-width:18;stroke-miterlimit:4;stroke-opacity:1;stroke-dasharray:none" />
</svg>
