<?xml version="1.0" encoding="UTF-8" standalone="no"?>
<svg
   xmlns:dc="http://purl.org/dc/elements/1.1/"
   xmlns:cc="http://creativecommons.org/ns#"
   xmlns:rdf="http://www.w3.org/1999/02/22-rdf-syntax-ns#"
   xmlns:svg="http://www.w3.org/2000/svg"
   xmlns="http://www.w3.org/2000/svg"
   xmlns:sodipodi="http://sodipodi.sourceforge.net/DTD/sodipodi-0.dtd"
   xmlns:inkscape="http://www.inkscape.org/namespaces/inkscape"
   width="577.47949"
   height="170.57111"
   version="1.1"
   id="svg51"
   sodipodi:docname="footer.svg"
   inkscape:version="0.92.2 5c3e80d, 2017-08-06">
  <sodipodi:namedview
     pagecolor="#ffffff"
     bordercolor="#666666"
     borderopacity="1"
     objecttolerance="10"
     gridtolerance="10"
     guidetolerance="10"
     inkscape:pageopacity="0"
     inkscape:pageshadow="2"
     inkscape:window-width="1270"
     inkscape:window-height="728"
     id="namedview53"
     showgrid="false"
     fit-margin-top="10"
     fit-margin-left="10"
     fit-margin-right="10"
     fit-margin-bottom="10"
     inkscape:zoom="0.4"
     inkscape:cx="286.74042"
     inkscape:cy="106.01725"
     inkscape:window-x="0"
     inkscape:window-y="0"
     inkscape:window-maximized="0"
     inkscape:current-layer="svg51" />
  <metadata
     id="metadata73">image/svg+xml<rdf:RDF>
  <cc:Work
     rdf:about="">
    <dc:format>image/svg+xml</dc:format>
    <dc:type
       rdf:resource="http://purl.org/dc/dcmitype/StillImage" />
    <dc:title></dc:title>
  </cc:Work>
</rdf:RDF>
</metadata>
  <defs
     id="defs5">
    <clipPath
       id="clipPath3063">
      <rect
         id="rect3065"
         y="-115.83732"
         x="124.38743"
         height="187.38884"
         width="160.46516"
         style="fill:#ffffff" />
    </clipPath>
  </defs>
  <g
     id="g10"
     transform="translate(-73.25958,-95.446143)">
    <title
       id="title7">background</title>
    <rect
       id="canvas_background"
       height="322"
       width="722"
       y="-1"
       x="-1"
       style="fill:none" />
  </g>
  <g
     id="g49"
     transform="translate(-73.25958,-95.446143)">
    <title
       id="title12">Layer 1</title>
    <metadata
       transform="matrix(7.111152225129956,0,0,7.111152225129956,0,0) "
       id="svg_14">Created by potrace 1.12, written by Peter Selinger 2001-2015image/svg+xmlInstagram icon</metadata>
    <g
       stroke="null"
       id="svg_44">
      <g
         stroke="null"
         id="svg_42">
        <path
           stroke="null"
           id="path5"
           d="m 95.819098,148.41733 h -2.394287 v 17.68415 H 83.25958 v -59.79724 h 10.165231 v 35.27827 l 2.052246,-1.19414 7.086863,-17.00007 h 11.02332 l -7.86094,16.91006 -3.67245,2.90435 4.01449,2.90435 8.71306,19.99442 h -11.44939 l -7.512912,-17.68414"
           inkscape:connector-curvature="0"
           style="fill:#452768;fill-rule:nonzero" />
        <path
           stroke="null"
           id="path7"
           d="m 118.54985,125.95062 c 1.71021,-1.02612 3.84047,-1.84821 6.40277,-2.4783 2.56831,-0.62407 5.47267,-0.93612 8.71306,-0.93612 4.84258,0 8.20299,1.24816 10.08122,3.75647 1.93823,2.50229 2.90435,6.06673 2.90435,10.67529 0,2.67631 -0.084,5.32865 -0.25203,7.94496 -0.11401,2.56231 -0.20402,5.10061 -0.25803,7.60292 -0.0601,2.44829 -0.03,4.84258 0.084,7.17686 0.17401,2.27427 0.57006,4.44055 1.19414,6.49279 h -8.281 l -1.6262,-5.21464 h -0.34204 c -0.91212,1.65621 -2.19027,3.01838 -3.84047,4.10451 -1.6562,1.08012 -3.73245,1.62019 -6.24075,1.62019 -3.36041,0 -6.00673,-1.11013 -7.94496,-3.33039 -1.93223,-2.2803 -2.90436,-5.29865 -2.90436,-9.0551 0,-5.12462 1.82423,-8.76706 5.47267,-10.93333 3.64244,-2.16627 8.56903,-3.07838 14.77379,-2.73633 0.28803,-3.3004 0.06,-5.69469 -0.68409,-7.17088 -0.68408,-1.48217 -2.19026,-2.22026 -4.52454,-2.22026 -1.71022,0 -3.47442,0.19804 -5.29865,0.59408 -1.81822,0.40205 -3.44442,0.97211 -4.86658,1.7102 l -2.56232,-7.60292 m 12.21147,32.03187 c 1.54219,0 2.79635,-0.37205 3.76246,-1.11012 0.96612,-0.79811 1.6802,-1.65021 2.13626,-2.56231 v -7.08686 c -1.31415,-0.17402 -2.56231,-0.20404 -3.76245,-0.09 -1.19415,0.11398 -2.24428,0.37205 -3.15638,0.76809 -0.91212,0.40206 -1.65621,0.99612 -2.22028,1.79422 -0.51605,0.7441 -0.77408,1.71021 -0.77408,2.90436 0,1.77021 0.34204,3.10837 1.02612,4.01449 0.74409,0.9121 1.7402,1.36815 2.98835,1.36815"
           inkscape:connector-curvature="0"
           style="fill:#452768;fill-rule:nonzero" />
        <path
           stroke="null"
           id="path9"
           d="m 150.3357,123.3883 h 4.69857 v -8.02896 l 10.16523,-3.16238 v 11.19134 h 8.287 v 9.0551 h -8.287 v 18.62027 c 0,2.44829 0.22802,4.1885 0.68408,5.20862 0.51006,1.02612 1.39217,1.5422 2.64632,1.5422 0.85211,0 1.6262,-0.09 2.30429,-0.25805 0.68407,-0.16803 1.42817,-0.42606 2.22627,-0.76809 l 1.27815,8.11299 c -1.25416,0.63007 -2.70633,1.14014 -4.35653,1.53618 -1.6502,0.45605 -3.39042,0.68408 -5.20863,0.68408 -3.2464,0 -5.6947,-0.93611 -7.35089,-2.81434 -1.59019,-1.88422 -2.38829,-5.04061 -2.38829,-9.48715 V 132.4434 h -4.69857 v -9.0551"
           inkscape:connector-curvature="0"
           style="fill:#452768;fill-rule:nonzero" />
        <path
           stroke="null"
           id="path11"
           d="m 179.37922,123.3883 h 10.16523 v 42.71318 H 179.37922 V 123.3883 m -1.19415,-12.04345 c 0,-1.71021 0.54007,-3.10237 1.6202,-4.1885 1.08613,-1.14014 2.62231,-1.71021 4.61456,-1.71021 1.99223,0 3.58844,0.54607 4.78258,1.6262 1.19414,1.08012 1.79421,2.5083 1.79421,4.27251 0,1.76423 -0.60007,3.15639 -1.79421,4.18251 -1.19414,1.02612 -2.79035,1.53618 -4.78258,1.53618 -1.99225,0 -3.52843,-0.51006 -4.61456,-1.53618 -1.08013,-1.08013 -1.6202,-2.4783 -1.6202,-4.18251"
           inkscape:connector-curvature="0"
           style="fill:#452768;fill-rule:nonzero" />
        <path
           stroke="null"
           id="path13"
           d="m 226.58693,162.93908 c -1.42818,1.25417 -3.36041,2.27429 -5.8087,3.07238 -2.4483,0.79811 -5.01061,1.20015 -7.68693,1.20015 -2.96437,0 -5.52668,-0.51606 -7.69293,-1.54218 -2.10627,-1.02012 -3.84047,-2.50231 -5.20864,-4.44055 -1.36815,-1.93823 -2.39429,-4.27251 -3.07238,-7.00283 -0.63005,-2.79035 -0.94211,-5.95273 -0.94211,-9.48115 0,-7.68694 1.50618,-13.35763 4.52455,-17.00006 3.07838,-3.70245 7.32089,-5.55067 12.72754,-5.55067 1.82423,0 3.58844,0.28203 5.29865,0.8521 1.7102,0.51006 3.21639,1.42218 4.53055,2.73034 1.36217,1.25415 2.4483,2.96436 3.24038,5.13061 0.85812,2.10626 1.28417,4.78257 1.28417,8.02898 0,1.24815 -0.084,2.59231 -0.25803,4.01449 -0.11399,1.42216 -0.31204,2.95835 -0.59408,4.60855 h -20.76251 c 0.11399,3.53443 0.8581,6.24076 2.22627,8.11897 1.36216,1.87823 3.55842,2.82035 6.5768,2.82035 1.81821,0 3.4744,-0.28803 4.95059,-0.8581 1.54219,-0.57007 2.70633,-1.16415 3.50442,-1.79422 l 3.1624,7.09285 m -13.32763,-32.03187 c -2.16626,0 -3.78646,0.88211 -4.86658,2.64633 -1.08613,1.7102 -1.7102,4.12849 -1.88424,7.26087 h 11.79143 c 0.16803,-3.2464 -0.17402,-5.69468 -1.02611,-7.34489 -0.85211,-1.71021 -2.19028,-2.56231 -4.0145,-2.56231"
           inkscape:connector-curvature="0"
           style="fill:#452768;fill-rule:nonzero" />
        <path
           stroke="null"
           id="path15"
           d="m 283.15577,124.75648 h 5.64068 l -3.3304,23.31881 c -0.68407,5.17863 0.14394,7.77095 2.4783,7.77095 1.13414,0 2.24428,-0.34204 3.33041,-1.02612 1.14014,-0.67809 2.13626,-1.73422 2.98835,-3.15639 0.91211,-1.42217 1.6202,-3.2464 2.13627,-5.46666 0.57006,-2.22026 0.85211,-4.87259 0.85211,-7.94497 0,-3.93046 -0.57009,-7.29087 -1.70422,-10.08122 -1.08613,-2.84434 -2.62231,-5.15462 -4.61456,-6.91882 -1.99223,-1.82422 -4.35652,-3.1624 -7.09285,-4.01449 -2.73034,-0.8521 -5.7187,-1.28415 -8.9651,-1.28415 -3.64843,0 -7.06285,0.74407 -10.25523,2.22627 -3.13237,1.42217 -5.86271,3.4444 -8.19699,6.06072 -2.28027,2.62233 -4.0985,5.7547 -5.46667,9.39714 -1.31415,3.64244 -1.96823,7.68693 -1.96823,12.13346 0,8.71307 2.16625,15.34386 6.49278,19.89842 4.32653,4.56055 10.39326,6.83483 18.19421,6.83483 1.48217,0 3.10838,-0.19803 4.87258,-0.59407 1.81823,-0.40205 3.44441,-0.97212 4.86659,-1.71021 l 2.4783,7.42889 c -1.82423,0.97213 -3.81646,1.6802 -5.97672,2.13627 -2.16627,0.51606 -4.61456,0.76809 -7.35089,0.76809 -4.49455,0 -8.71305,-0.68408 -12.64354,-2.04625 -3.87046,-1.36818 -7.26087,-3.47442 -10.16522,-6.32477 -2.90436,-2.79034 -5.20863,-6.34877 -6.91883,-10.67529 -1.65021,-4.38654 -2.4723,-9.57116 -2.4723,-15.54788 0,-5.97673 0.9361,-11.33538 2.81434,-16.05795 1.93824,-4.72856 4.50053,-8.71305 7.69293,-11.95944 3.18638,-3.24638 6.85882,-5.72469 11.01732,-7.43491 4.15852,-1.70419 8.51503,-2.5623 13.0696,-2.5623 4.32651,0 8.37101,0.65407 12.12746,1.96824 3.81646,1.25414 7.09287,3.15638 9.82319,5.71868 2.79034,2.50831 4.9866,5.6707 6.57679,9.48715 1.5962,3.75646 2.39429,8.14299 2.39429,13.15359 0,3.75647 -0.57007,7.2609 -1.71021,10.50729 -1.08012,3.18639 -2.56231,5.94671 -4.44052,8.28699 -1.87824,2.27429 -4.0985,4.06849 -6.66082,5.37666 -2.5083,1.31417 -5.18462,1.96824 -8.02896,1.96824 -2.33428,0 -4.33254,-0.60009 -5.98273,-1.79423 -1.59621,-1.19415 -2.33429,-3.27638 -2.22027,-6.23476 h -0.25804 c -1.30815,2.16027 -2.90434,4.04451 -4.78257,5.63469 -1.82422,1.5962 -4.06849,2.3943 -6.74481,2.3943 -2.45431,0 -4.53055,-1.08015 -6.24076,-3.2464 -1.70421,-2.16626 -2.56231,-5.18462 -2.56231,-9.05509 0,-3.81647 0.45604,-7.40491 1.36816,-10.76531 0.96612,-3.36041 2.25028,-6.28876 3.84647,-8.79706 1.59019,-2.56231 3.44442,-4.58455 5.55067,-6.06674 2.10626,-1.47618 4.35653,-2.22027 6.75082,-2.22027 1.59019,0 2.95835,0.28804 4.09849,0.8581 1.14014,0.57008 2.19027,1.33818 3.16239,2.30428 l 2.13025,-2.64631 m -4.52455,9.82319 c -1.02612,-1.20015 -2.36427,-1.79422 -4.01448,-1.79422 -1.30815,0 -2.5083,0.48005 -3.58844,1.45218 -1.08012,0.9121 -2.02223,2.16025 -2.82033,3.75644 -0.79811,1.53618 -1.42218,3.33041 -1.87823,5.38267 -0.45606,1.99224 -0.68408,4.06848 -0.68408,6.23474 0,1.99225 0.31203,3.53445 0.94211,4.61457 0.68408,1.08013 1.71021,1.62019 3.07238,1.62019 1.25414,0 2.5083,-0.68407 3.76246,-2.04624 1.30814,-1.42818 2.38827,-2.99436 3.24638,-4.69858 l 1.96224,-14.52175"
           inkscape:connector-curvature="0"
           style="fill:#452768;fill-rule:nonzero" />
        <path
           stroke="null"
           id="path17"
           d="m 344.99326,166.10148 c 0,6.20475 -1.42218,10.75929 -4.27252,13.66366 -2.85035,2.96436 -6.80483,4.44053 -11.87544,4.44053 -3.52842,0 -6.28876,-0.28204 -8.287,-0.85209 -1.99223,-0.51007 -3.52842,-1.08015 -4.60856,-1.71021 l 2.13626,-8.62306 c 1.24816,0.51008 2.58631,0.99612 4.01449,1.45219 1.47617,0.45005 3.21639,0.67807 5.20862,0.67807 2.90437,0 4.8966,-0.79209 5.98273,-2.38828 1.13413,-1.53619 1.70421,-3.90049 1.70421,-7.09286 v -2.30428 h -0.25203 c -0.79811,1.14014 -1.88424,1.99223 -3.2464,2.56231 -1.31415,0.57006 -3.01836,0.8521 -5.13061,0.8521 -4.49455,0 -7.88495,-1.68021 -10.16524,-5.03461 -2.22027,-3.42041 -3.33041,-8.80307 -3.33041,-16.14795 0,-7.91496 1.5422,-13.75366 4.61457,-17.51012 3.13237,-3.76245 7.57292,-5.64068 13.32761,-5.64068 3.07238,0 5.83272,0.25803 8.287,0.76809 2.4483,0.45606 4.41055,1.02613 5.89272,1.71021 v 41.17698 m -15.80591,-8.03497 c 1.53619,0 2.73633,-0.36604 3.58843,-1.11014 0.91212,-0.73809 1.59619,-1.7942 2.05224,-3.15637 v -21.3566 c -0.63006,-0.28803 -1.33816,-0.51605 -2.13625,-0.68408 -0.73809,-0.17401 -1.6262,-0.25803 -2.64632,-0.25803 -2.11226,0 -3.76246,1.02613 -4.9566,3.07838 -1.14014,2.04625 -1.71021,5.58067 -1.71021,10.59128 0,8.59905 1.93824,12.89557 5.80871,12.89557"
           inkscape:connector-curvature="0"
           style="fill:#452768;fill-rule:nonzero" />
        <path
           stroke="null"
           id="path19"
           d="m 362.61739,152.2578 c 0,1.99825 0.20402,3.42041 0.60007,4.27252 0.39605,0.85809 1.05613,1.28417 1.96225,1.28417 0.51605,0 1.02611,-0.0601 1.54217,-0.17403 0.57009,-0.11398 1.19415,-0.31204 1.87824,-0.59407 l 0.9361,8.19698 c -0.67807,0.45607 -1.84821,0.88211 -3.49842,1.28415 -1.6502,0.39605 -3.3304,0.59408 -5.0406,0.59408 -2.85036,0 -4.9866,-0.70808 -6.40879,-2.13625 -1.42217,-1.42219 -2.13625,-3.84047 -2.13625,-7.26089 v -51.42022 h 10.16523 v 45.95356"
           inkscape:connector-curvature="0"
           style="fill:#452768;fill-rule:nonzero" />
        <path
           stroke="null"
           id="path21"
           d="m 373.05865,125.95062 c 1.70422,-1.02612 3.84046,-1.84821 6.40278,-2.4783 2.56232,-0.62407 5.46665,-0.93612 8.71306,-0.93612 4.84258,0 8.20299,1.24816 10.08122,3.75647 1.93822,2.50229 2.90435,6.06673 2.90435,10.67529 0,2.67631 -0.084,5.32865 -0.25804,7.94496 -0.11398,2.56231 -0.19801,5.10061 -0.25202,7.60292 -0.0601,2.44829 -0.03,4.84258 0.084,7.17686 0.16801,2.27427 0.57007,4.44055 1.19415,6.49279 h -8.28701 l -1.6202,-5.21464 h -0.34203 c -0.91211,1.65621 -2.19028,3.01838 -3.84647,4.10451 -1.6502,1.08012 -3.72645,1.62019 -6.23476,1.62019 -3.3604,0 -6.00672,-1.11013 -7.94496,-3.33039 -1.93223,-2.2803 -2.90435,-5.29865 -2.90435,-9.0551 0,-5.12462 1.82422,-8.76706 5.46666,-10.93333 3.64845,-2.16627 8.57504,-3.07838 14.77978,-2.73633 0.28804,-3.3004 0.0601,-5.69469 -0.68408,-7.17088 -0.68407,-1.48217 -2.19025,-2.22026 -4.52453,-2.22026 -1.71021,0 -3.47444,0.19804 -5.29865,0.59408 -1.81821,0.40205 -3.44442,0.97211 -4.8666,1.7102 l -2.56232,-7.60292 m 12.21148,32.03187 c 1.54219,0 2.79034,-0.37205 3.76246,-1.11012 0.96612,-0.79811 1.6802,-1.65021 2.13625,-2.56231 v -7.08686 c -1.31415,-0.17402 -2.5623,-0.20404 -3.76244,-0.09 -1.19415,0.11398 -2.25029,0.37205 -3.15639,0.76809 -0.91211,0.40206 -1.65621,0.99612 -2.22627,1.79422 -0.51007,0.7441 -0.7681,1.71021 -0.7681,2.90436 0,1.77021 0.34205,3.10837 1.02614,4.01449 0.74407,0.9121 1.7402,1.36815 2.98835,1.36815"
           inkscape:connector-curvature="0"
           style="fill:#452768;fill-rule:nonzero" />
        <path
           stroke="null"
           id="path23"
           d="m 422.52864,154.73611 c 0,-1.19414 -0.40205,-2.19027 -1.20013,-2.98837 -0.7381,-0.8521 -1.70422,-1.6202 -2.90437,-2.30427 -1.19414,-0.7441 -2.4783,-1.48218 -3.84047,-2.22026 -1.31415,-0.7441 -2.5623,-1.65622 -3.76245,-2.73634 -1.19414,-1.08014 -2.19026,-2.3943 -2.98836,-3.93048 -0.73808,-1.53619 -1.11013,-3.47442 -1.11013,-5.8087 0,-3.98449 1.08013,-7.06285 3.24639,-9.22311 2.16626,-2.16627 5.35265,-3.2464 9.56516,-3.2464 2.50831,0 4.87258,0.28204 7.09287,0.85209 2.22026,0.51608 3.98448,1.17015 5.29264,1.96824 l -2.38831,7.85495 c -1.08613,-0.45605 -2.39427,-0.88208 -3.93046,-1.27815 -1.53619,-0.45604 -3.04838,-0.68408 -4.52456,-0.68408 -2.79634,0 -4.1885,1.16414 -4.1885,3.49843 0,1.08614 0.37205,1.99824 1.11014,2.73632 0.79809,0.6841 1.79421,1.36818 2.98835,2.05225 1.20015,0.68408 2.4483,1.39218 3.76247,2.13626 1.36215,0.7381 2.64632,1.67421 3.84046,2.81435 1.19413,1.08613 2.16626,2.42428 2.90434,4.01448 0.79811,1.59619 1.19416,3.55843 1.20014,5.89871 -0.006,3.92448 -1.20014,7.08685 -3.58841,9.48116 -2.3943,2.38827 -5.95273,3.58842 -10.68131,3.58842 -2.33428,0 -4.63855,-0.28803 -6.91882,-0.8581 -2.22029,-0.57006 -4.0145,-1.30816 -5.38267,-2.22026 l 2.82035,-8.197 c 1.19414,0.67809 2.56232,1.27815 4.0985,1.78821 1.59619,0.51607 3.24639,0.7741 4.9566,0.7741 1.30815,0 2.39428,-0.28803 3.24639,-0.8581 0.85211,-0.62407 1.28415,-1.5902 1.28415,-2.90435"
           inkscape:connector-curvature="0"
           style="fill:#452768;fill-rule:nonzero" />
        <path
           stroke="null"
           id="path25"
           d="m 459.22309,166.10148 v -25.97114 c 0,-3.13237 -0.37205,-5.32264 -1.11014,-6.5768 -0.73809,-1.25415 -1.99225,-1.87823 -3.75645,-1.87823 -1.48219,0 -2.76633,0.45606 -3.84648,1.36217 -1.08012,0.91211 -1.84821,2.05225 -2.30427,3.42041 v 29.64359 H 438.04051 V 123.3883 h 8.11299 l 1.19415,4.9566 h 0.25804 c 1.0261,-1.65619 2.41828,-3.04836 4.1885,-4.1885 1.76422,-1.19414 4.06849,-1.79422 6.91882,-1.79422 1.70422,0 3.21639,0.25803 4.52456,0.76809 1.36816,0.51608 2.5083,1.36818 3.42041,2.56232 0.90611,1.14014 1.5902,2.70633 2.04625,4.69858 0.45606,1.93821 0.68408,4.35651 0.68408,7.26087 v 28.44944 h -10.16522"
           inkscape:connector-curvature="0"
           style="fill:#452768;fill-rule:nonzero" />
        <path
           stroke="null"
           id="path27"
           d="m 473.07877,123.3883 h 4.69856 v -8.02896 l 10.16523,-3.16238 v 11.19134 h 8.28701 v 9.0551 h -8.28701 v 18.62027 c 0,2.44829 0.22803,4.1885 0.68408,5.20862 0.51606,1.02612 1.39817,1.5422 2.64632,1.5422 0.85811,0 1.6262,-0.09 2.31028,-0.25805 0.68409,-0.16803 1.42217,-0.42606 2.22028,-0.76809 l 1.27814,8.11299 c -1.24815,0.63007 -2.70033,1.14014 -4.35652,1.53618 -1.6502,0.45605 -3.38442,0.68408 -5.20864,0.68408 -3.24639,0 -5.69469,-0.93611 -7.34489,-2.81434 -1.59618,-1.88422 -2.39428,-5.04061 -2.39428,-9.48715 V 132.4434 h -4.69856 v -9.0551"
           inkscape:connector-curvature="0"
           style="fill:#452768;fill-rule:nonzero" />
        <path
           stroke="null"
           id="path29"
           d="m 505.41668,160.54481 c 0,-2.10625 0.54006,-3.70246 1.62619,-4.78258 1.14014,-1.08012 2.61632,-1.6202 4.44054,-1.6202 1.99223,0 3.52843,0.54008 4.61455,1.6202 1.08014,1.08012 1.62021,2.67633 1.62021,4.78258 0,2.05224 -0.57007,3.64844 -1.71021,4.78258 -1.08014,1.14014 -2.58631,1.7102 -4.52455,1.7102 -1.87823,0 -3.3604,-0.57006 -4.44054,-1.7102 -1.08613,-1.13414 -1.62619,-2.73034 -1.62619,-4.78258"
           inkscape:connector-curvature="0"
           style="fill:#452768;fill-rule:nonzero" />
        <path
           stroke="null"
           id="path31"
           d="m 549.57002,163.79119 c -1.42218,1.14014 -3.13239,1.99225 -5.12462,2.56232 -1.99225,0.57006 -3.98448,0.85809 -5.97673,0.85809 -2.90434,0 -5.35264,-0.51605 -7.34489,-1.54217 -1.93823,-1.08014 -3.53442,-2.58632 -4.78857,-4.52455 -1.24815,-1.99224 -2.16025,-4.35653 -2.73034,-7.09286 -0.51606,-2.79034 -0.76809,-5.89272 -0.76809,-9.30712 0,-7.46491 1.33818,-13.06959 4.01449,-16.83205 2.67632,-3.75645 6.60679,-5.63467 11.78543,-5.63467 2.56232,0 4.64457,0.22801 6.23475,0.68408 1.65621,0.45605 3.10838,1.02613 4.35653,1.7042 l -2.38829,8.46103 c -1.02613,-0.51606 -2.02224,-0.8821 -2.98837,-1.11014 -0.9121,-0.28803 -2.02224,-0.43204 -3.33641,-0.43204 -2.38827,0 -4.18249,1.05612 -5.37664,3.16238 -1.20015,2.05224 -1.79421,5.38265 -1.79421,9.99721 0,3.87047 0.59406,7.03285 1.79421,9.48115 1.24815,2.44828 3.21639,3.67243 5.89272,3.67243 1.42216,0 2.61631,-0.17402 3.58844,-0.51007 1.02612,-0.40204 1.96223,-0.88809 2.81433,-1.45216 l 2.13626,7.85494"
           inkscape:connector-curvature="0"
           style="fill:#452768;fill-rule:nonzero" />
        <path
           stroke="null"
           id="path33"
           d="m 551.53226,144.7449 c 0,-7.57292 1.48218,-13.2136 4.44053,-16.91605 2.96436,-3.70245 7.09286,-5.55067 12.3855,-5.55067 5.6947,0 9.9372,1.87823 12.72754,5.63467 2.79035,3.76246 4.1885,9.36714 4.1885,16.83205 0,7.62692 -1.48217,13.2976 -4.44052,17.00006 -2.96437,3.64242 -7.12287,5.46665 -12.47552,5.46665 -11.21536,0 -16.82603,-7.48891 -16.82603,-22.46671 m 10.50727,0 c 0,4.26651 0.48006,7.57291 1.45218,9.90719 0.9661,2.33428 2.59231,3.50443 4.86658,3.50443 2.16627,0 3.76246,-0.99612 4.78258,-2.99435 1.08613,-2.04626 1.6262,-5.52067 1.6262,-10.41727 0,-4.38653 -0.48607,-7.71693 -1.45217,-9.99721 -0.96613,-2.27429 -2.62231,-3.41441 -4.95662,-3.41441 -1.99222,0 -3.55841,1.02613 -4.69855,3.07237 -1.08013,1.99224 -1.62021,5.44266 -1.62021,10.33925"
           inkscape:connector-curvature="0"
           style="fill:#452768;fill-rule:nonzero" />
        <path
           stroke="null"
           id="path35"
           d="m 610.84343,166.10148 v -24.861 c 0,-3.58844 -0.28804,-6.06673 -0.85809,-7.4289 -0.57007,-1.42818 -1.68021,-2.13627 -3.33041,-2.13627 -1.36816,0 -2.5023,0.45606 -3.4144,1.36217 -0.85812,0.85811 -1.51219,1.90823 -1.96824,3.16239 v 29.90161 H 591.10705 V 123.3883 h 7.86096 l 1.27814,5.12463 h 0.25804 c 1.08012,-1.76421 2.41828,-3.21639 4.01448,-4.35653 1.6502,-1.19414 3.81646,-1.79422 6.49279,-1.79422 2.22026,0 4.01448,0.48607 5.38265,1.45219 1.42218,0.96611 2.5323,2.67632 3.3304,5.12461 1.08013,-2.04625 2.50831,-3.64244 4.27251,-4.78258 1.76422,-1.19414 3.84046,-1.79422 6.23477,-1.79422 1.87821,0 3.47442,0.25803 4.78257,0.76809 1.36816,0.45607 2.44829,1.28417 3.24639,2.47831 0.85211,1.19415 1.48217,2.85034 1.87824,4.9566 0.40204,2.04625 0.60006,4.66856 0.60006,7.85495 v 27.68135 h -10.16523 v -25.97114 c 0,-2.90436 -0.25802,-5.04061 -0.76809,-6.40879 -0.51606,-1.36215 -1.65019,-2.04624 -3.42041,-2.04624 -1.42218,0 -2.58631,0.42606 -3.49843,1.27815 -0.85811,0.79811 -1.48219,1.90823 -1.87823,3.33041 v 29.81761 h -10.16523"
           inkscape:connector-curvature="0"
           style="fill:#452768;fill-rule:nonzero" />
      </g>
      <path
         stroke-miterlimit="4"
         id="path67"
         d="m 233.51157,181.90344 v 15.97393 h 267.61619 v -15.97393"
         inkscape:connector-curvature="0"
         style="fill:none;stroke:#000000;stroke-width:2.14064503;stroke-miterlimit:4;stroke-opacity:0.56620998" />
      <g
         stroke="null"
         id="svg_40">
        <g
           stroke="null"
           id="svg_16">
          <g
             stroke="null"
             id="svg_10"
             transform="matrix(0.01037776,0,0,-0.01036237,469.08847,349.86594)"
             style="fill:#000000">
            <path
               stroke="null"
               id="svg_13"
               d="m -11525.239,12694.685 -3,-508 -48,-3 c -27,-2 -55,2 -63,9 -12,10 -14,90 -14,500 0,555 10,502 -90,471 l -55,-18 -5,-479 -5,-480 -53,-3 c -31,-2 -60,2 -68,9 -12,10 -14,82 -14,435 0,390 -1,424 -17,424 -9,0 -60,-44 -114,-98 -86,-87 -103,-111 -147,-203 -84,-172 -85,-176 -89,-571 l -5,-348 h 671 c 369,0 671,4 671,8 0,13 119,107 191,150 87,53 188,95 295,123 131,34 340,33 475,-3 160.0004,-43 317.0004,-124 436.0004,-225 l 62,-53 h 666 667 l -4,353 c -4,329 -6,357 -27,427 -42,142 -93,224 -215,346 -122,121 -203,172 -346,216 l -75,23 -1197.0004,3 -1198,3 -2,-508 -3,-508 -48,-3 c -27,-2 -55,2 -63,9 -12,10 -14,91 -14,510 v 499 h -75 -75 z m 2872.0004,122 c 17,-9 39,-33 50,-55 18,-36 20,-59 20,-277 0,-344 11,-333 -329,-333 -258,0 -289,7 -322,72 -19,37 -20,55 -17,289 l 3,251 37,34 38,34 h 245 c 201,0 251,-3 275,-15 z"
               inkscape:connector-curvature="0"
               style="fill:#4c4c4c" />
            <path
               stroke="null"
               id="svg_12"
               d="m -10368.239,11924.685 c -352,-49 -638,-331 -695,-686 -17,-103 -8,-270 20,-367 39,-137 92,-223 210,-340 117,-118 193,-167 312,-205 468,-148 948.0004,112 1069.0004,580 27,104 29,300 5,395 -44,171 -98,264 -231,395 -129,129 -240,187 -413.0004,221 -69,13 -207,17 -277,7 z m 220,-248 c 78,-16 234.0004,-90 280.0004,-133 81,-75 147,-183 181,-298 25,-82 22,-218 -5,-304 -76,-241 -306,-413 -551.0004,-413 -90,0 -159,18 -260,66 -195,92 -323,297 -323,517 -1,269 194,506 464,564 84,19 129,19 214,1 z"
               inkscape:connector-curvature="0"
               style="fill:#4c4c4c" />
            <path
               stroke="null"
               id="svg_11"
               d="m -12311.239,10724.685 3,-1007.9995 23,-75 c 44,-143 95,-224 216,-346 124,-123 207,-174 352,-216 l 79,-23 h 1385 1385.0004 l 79,23 c 159,46 270,115 389,242 83,88 151,206 189,330 l 23,75 3,1002.9995 3,1002 h -616 c -536,0 -615,-2 -615,-15 0,-8 16,-40 36,-70 189,-297 208,-678 50,-994 -162,-322 -460,-529 -823.0004,-571 -292,-34 -630,92 -840,314 -84,88 -131,158 -193,289 -73,151 -94,249 -94,427 0,117 4,162 22,234 26,105 74,219 125,299 20,32 37,64 37,72 0,13 -78,15 -610,15 h -611 z"
               inkscape:connector-curvature="0"
               style="fill:#4c4c4c" />
          </g>
        </g>
        <path
           stroke="null"
           id="svg_17"
           d="m 406.92135,247.58137 c -0.29402,0.0601 -0.42605,0.19804 -0.39004,0.42005 0.0359,0.22804 0.20402,0.30005 0.50405,0.22804 0.30004,-0.078 0.43205,-0.21003 0.39006,-0.39604 -0.0359,-0.20404 -0.20403,-0.28804 -0.50407,-0.25205 z m 0,0"
           inkscape:connector-curvature="0"
           style="fill:#4c4c4c;fill-rule:nonzero" />
        <path
           stroke="null"
           id="svg_18"
           d="m 405.32515,247.8094 c -0.29403,0 -0.44404,0.10205 -0.44404,0.30604 0,0.24004 0.15601,0.34805 0.47405,0.30605 0.30003,0 0.45006,-0.10205 0.45006,-0.30605 0,-0.24002 -0.16203,-0.34804 -0.48007,-0.30604 z m 0,0"
           inkscape:connector-curvature="0"
           style="fill:#4c4c4c;fill-rule:nonzero" />
        <path
           stroke="null"
           id="svg_19"
           d="m 403.1409,247.72539 c -0.0721,0.20404 0.048,0.34205 0.36605,0.42006 0.28202,0.10799 0.45605,0.0541 0.53405,-0.16802 0.0541,-0.21003 -0.066,-0.35404 -0.36604,-0.45005 -0.28203,-0.0721 -0.45605,-0.0123 -0.53406,0.19801 z m 0,0"
           inkscape:connector-curvature="0"
           style="fill:#4c4c4c;fill-rule:nonzero" />
        <path
           stroke="null"
           id="svg_20"
           d="m 431.58432,215.36348 c -1.57818,-1.57218 -3.4804,-2.36428 -5.70068,-2.36428 h -26.88325 c -2.22027,0 -4.12251,0.7921 -5.70069,2.36428 -1.5722,1.57819 -2.36428,3.48042 -2.36428,5.7007 v 26.88326 c 0,2.22026 0.79208,4.12248 2.36428,5.70068 1.57818,1.5782 3.48042,2.36428 5.70069,2.36428 h 6.27076 c 0.41405,0 0.72009,-0.0123 0.92412,-0.0419 0.21002,-0.03 0.41404,-0.15008 0.61806,-0.36604 0.20404,-0.21003 0.30604,-0.52205 0.30604,-0.9361 0,-0.0541 0,-0.69009 -0.0123,-1.90225 -0.0123,-1.21813 -0.0123,-2.17825 -0.0123,-2.88633 l -0.64808,0.11398 c -0.40804,0.0721 -0.9241,0.10799 -1.55419,0.096 -0.62407,-0.0123 -1.27215,-0.0721 -1.94423,-0.19804 -0.67208,-0.11997 -1.29616,-0.40204 -1.87824,-0.84008 -0.57607,-0.43807 -0.99011,-1.00813 -1.23014,-1.72222 l -0.28202,-0.64208 c -0.18604,-0.42605 -0.48006,-0.9061 -0.88211,-1.42816 -0.40206,-0.52207 -0.80411,-0.87613 -1.21815,-1.06214 l -0.19202,-0.14394 c -0.13197,-0.09 -0.25203,-0.20402 -0.36605,-0.33604 -0.11398,-0.12596 -0.19803,-0.25803 -0.25202,-0.39005 -0.0541,-0.13196 -0.0123,-0.24003 0.13794,-0.32403 0.15009,-0.084 0.42006,-0.12597 0.8161,-0.12597 l 0.55807,0.084 c 0.37205,0.078 0.8341,0.30003 1.38617,0.67208 0.55206,0.37806 1.00212,0.85812 1.35616,1.45818 0.43206,0.7621 0.94812,1.35018 1.55419,1.75223 0.60607,0.39604 1.21816,0.60006 1.83623,0.60006 0.61806,0 1.14612,-0.0479 1.59618,-0.13795 0.45006,-0.096 0.87011,-0.23404 1.26015,-0.42005 0.16803,-1.25416 0.62407,-2.21428 1.37418,-2.88636 -1.06815,-0.11399 -2.02225,-0.28202 -2.87436,-0.50405 -0.84609,-0.22203 -1.7222,-0.58807 -2.62832,-1.09214 -0.90611,-0.50405 -1.65619,-1.12813 -2.25628,-1.87823 -0.60006,-0.74408 -1.08612,-1.72821 -1.47017,-2.94035 -0.38405,-1.21215 -0.57607,-2.61032 -0.57607,-4.2005 0,-2.25628 0.7381,-4.18252 2.21427,-5.76671 -0.69008,-1.69821 -0.62407,-3.60644 0.19804,-5.71269 0.54005,-0.16802 1.34416,-0.0419 2.40628,0.37804 1.06213,0.42005 1.84222,0.78011 2.34028,1.08014 0.49205,0.29404 0.88811,0.54606 1.18815,0.75609 1.73421,-0.48606 3.52842,-0.7321 5.37666,-0.7321 1.84821,0 3.64242,0.24604 5.37664,0.7321 l 1.06212,-0.67208 c 0.73211,-0.45005 1.5902,-0.8641 2.58032,-1.23615 0.99012,-0.37205 1.74621,-0.47405 2.26827,-0.30604 0.84011,2.10625 0.91211,4.01448 0.22203,5.7127 1.47617,1.58418 2.21427,3.51042 2.21427,5.7667 0,1.59018 -0.19202,2.99436 -0.57608,4.2185 -0.38404,1.21815 -0.8761,2.20226 -1.48217,2.94036 -0.60607,0.73209 -1.36217,1.35617 -2.26829,1.86022 -0.9061,0.50407 -1.7822,0.87011 -2.63431,1.09214 -0.84609,0.22203 -1.80621,0.39003 -2.86835,0.50405 0.97213,0.84011 1.45219,2.16627 1.45219,3.9785 v 6.69081 c 0,0.31803 0.0479,0.57607 0.14394,0.76809 0.09,0.19801 0.24003,0.33004 0.44405,0.40804 0.21003,0.0721 0.39003,0.11998 0.55206,0.13794 0.15604,0.018 0.38405,0.03 0.68409,0.03 h 6.27077 c 2.22026,0 4.12248,-0.78609 5.70067,-2.36429 1.5782,-1.57819 2.3643,-3.48041 2.3643,-5.70068 v -26.88325 c 0,-2.22028 -0.7861,-4.12251 -2.3643,-5.7007 l 7.9e-4,-1.4e-4 z m 0,0"
           inkscape:connector-curvature="0"
           style="fill:#4c4c4c;fill-rule:nonzero" />
        <path
           stroke="null"
           id="svg_21"
           d="m 399.92452,244.30498 c -0.13196,0.096 -0.11399,0.24604 0.0541,0.45006 0.18603,0.18601 0.33604,0.21603 0.45006,0.084 0.13196,-0.096 0.10799,-0.24002 -0.0601,-0.45005 -0.18603,-0.16803 -0.33604,-0.19203 -0.44405,-0.084 z m 0,0"
           inkscape:connector-curvature="0"
           style="fill:#4c4c4c;fill-rule:nonzero" />
        <path
           stroke="null"
           id="svg_22"
           d="m 399.00039,243.6089 c -0.0601,0.13196 0.006,0.24004 0.19202,0.33605 0.15009,0.09 0.27604,0.0721 0.36604,-0.0601 0.0541,-0.12597 -0.006,-0.24003 -0.19801,-0.33604 -0.18603,-0.0541 -0.30604,-0.0359 -0.36005,0.0601 z m 0,0"
           inkscape:connector-curvature="0"
           style="fill:#4c4c4c;fill-rule:nonzero" />
        <path
           stroke="null"
           id="svg_23"
           d="m 400.78862,245.39712 c -0.16803,0.096 -0.16803,0.26402 0,0.50405 0.16801,0.24603 0.33004,0.31205 0.48006,0.19803 0.168,-0.13196 0.168,-0.30604 0,-0.53407 -0.15009,-0.24003 -0.31205,-0.29403 -0.48006,-0.16801 z m 0,0"
           inkscape:connector-curvature="0"
           style="fill:#4c4c4c;fill-rule:nonzero" />
        <path
           stroke="null"
           id="svg_24"
           d="m 401.77273,246.65726 c -0.16802,0.15009 -0.13196,0.33005 0.11399,0.53407 0.22202,0.22203 0.40804,0.25203 0.55806,0.084 0.15009,-0.15008 0.10799,-0.32404 -0.11399,-0.53407 -0.22202,-0.22202 -0.40804,-0.25203 -0.55806,-0.084 z m 0,0"
           inkscape:connector-curvature="0"
           style="fill:#4c4c4c;fill-rule:nonzero" />
        <path
           stroke="null"
           id="svg_26"
           d="m 330.6997,215.36348 c -1.5782,-1.57219 -3.48043,-2.36428 -5.7007,-2.36428 h -26.88325 c -2.22026,0 -4.12249,0.79209 -5.70069,2.36428 -1.57819,1.57819 -2.36429,3.48042 -2.36429,5.7007 v 26.88325 c 0,2.22027 0.7861,4.12249 2.36429,5.70068 1.5782,1.57821 3.48043,2.36429 5.70069,2.36429 H 324.999 c 2.22027,0 4.1225,-0.78609 5.6947,-2.36429 1.57819,-1.57819 2.37028,-3.48041 2.37028,-5.70068 v -26.88325 c 0,-2.22028 -0.79209,-4.12251 -2.36428,-5.7007 z m -7.74694,14.18571 c 0.018,0.16803 0.03,0.42006 0.03,0.75609 0,1.56619 -0.22803,3.1444 -0.68408,4.71657 -0.46206,1.5782 -1.15815,3.09038 -2.10026,4.53656 -0.94211,1.45217 -2.07026,2.73033 -3.37841,3.84046 -1.30215,1.11013 -2.87434,1.99825 -4.70457,2.65833 -1.82422,0.66607 -3.78645,0.99611 -5.8807,0.99611 -3.2464,0 -6.25277,-0.88209 -9.0131,-2.63431 0.44405,0.0541 0.91211,0.084 1.39817,0.084 2.70632,0 5.14262,-0.84011 7.30888,-2.52031 -1.26614,-0.018 -2.40028,-0.40804 -3.40241,-1.17613 -0.99611,-0.76211 -1.69221,-1.73422 -2.08825,-2.91035 0.48607,0.0721 0.85211,0.10799 1.09214,0.10799 0.41404,0 0.8881,-0.0721 1.42816,-0.22202 -1.36215,-0.26405 -2.5083,-0.93613 -3.44441,-2.02824 -0.93011,-1.09214 -1.39817,-2.34029 -1.39817,-3.73847 v -0.0601 c 0.99012,0.46806 1.92023,0.71408 2.80234,0.73208 -1.6982,-1.14014 -2.55031,-2.77234 -2.55031,-4.90259 0,-1.04413 0.27003,-2.03424 0.8101,-2.97036 1.47617,1.81223 3.27039,3.2584 5.37665,4.34453 2.11226,1.08013 4.36854,1.6862 6.78082,1.81822 -0.096,-0.35405 -0.14394,-0.80411 -0.14394,-1.34416 0,-1.6262 0.57607,-3.01238 1.7222,-4.15851 1.15215,-1.14613 2.53832,-1.7222 4.15851,-1.7222 1.72221,0 3.15038,0.61807 4.28453,1.84821 1.29014,-0.24002 2.54431,-0.72008 3.75644,-1.42817 -0.46805,1.44017 -1.33815,2.53231 -2.60431,3.27641 1.21215,-0.16803 2.34028,-0.48607 3.38441,-0.95413 -0.7801,1.19415 -1.76422,2.21427 -2.94035,3.05437 z m 0,0"
           inkscape:connector-curvature="0"
           style="fill:#4c4c4c;fill-rule:nonzero" />
      </g>
    </g>
  </g>
</svg>
